<svg xmlns="http://www.w3.org/2000/svg" width="134" height="174" viewBox="0 0 134 174" fill="none">
  <path d="M132.597 122.977L88.3547 170.415C87.3977 171.446 86.239 172.268 84.9502 172.83C83.6617 173.393 82.2707 173.685 80.8646 173.686H-128.86C-129.86 173.685 -130.838 173.393 -131.675 172.845C-132.512 172.297 -133.171 171.517 -133.571 170.6C-133.971 169.683 -134.095 168.67 -133.928 167.683C-133.761 166.697 -133.31 165.781 -132.63 165.047L-88.4378 117.61C-87.4808 116.579 -86.3221 115.757 -85.0333 115.194C-83.7447 114.632 -82.3538 114.34 -80.9477 114.339H128.777C129.785 114.318 130.779 114.596 131.63 115.139C132.482 115.681 133.156 116.463 133.563 117.386C133.972 118.31 134.097 119.333 133.925 120.328C133.753 121.323 133.291 122.245 132.597 122.977ZM88.3547 27.4281C87.3942 26.4025 86.2345 25.5835 84.9467 25.021C83.6589 24.4588 82.2697 24.1649 80.8646 24.1577H-128.86C-129.86 24.1582 -130.838 24.4503 -131.675 24.9986C-132.512 25.5466 -133.171 26.3268 -133.571 27.2436C-133.971 28.1604 -134.095 29.1738 -133.928 30.16C-133.761 31.1462 -133.31 32.0625 -132.63 32.7963L-88.4378 80.2589C-87.4773 81.2846 -86.3176 82.1035 -85.0298 82.666C-83.742 83.2283 -82.3528 83.5221 -80.9477 83.5294H128.777C129.775 83.5241 130.749 83.2282 131.583 82.6785C132.417 82.1284 133.071 81.348 133.468 80.4322C133.865 79.5164 133.987 78.5047 133.817 77.5208C133.65 76.5368 133.201 75.623 132.522 74.891L88.3547 27.4281ZM-128.86 -6.65207H80.8646C82.2707 -6.65332 83.6617 -6.94468 84.9502 -7.50744C86.239 -8.06995 87.3977 -8.89237 88.3547 -9.92276L132.597 -57.3603C133.291 -58.093 133.753 -59.0148 133.925 -60.0097C134.097 -61.0046 133.972 -62.0282 133.563 -62.9517C133.156 -63.8751 132.482 -64.6571 131.63 -65.1993C130.779 -65.7416 129.785 -66.0198 128.777 -65.9989H-80.9477C-82.3538 -65.9974 -83.7447 -65.7062 -85.0333 -65.1435C-86.3221 -64.5808 -87.4808 -63.7586 -88.4378 -62.7282L-132.63 -15.2907C-133.31 -14.5569 -133.761 -13.6406 -133.928 -12.6544C-134.095 -11.6682 -133.971 -10.6548 -133.571 -9.73801C-133.171 -8.82122 -132.512 -8.04099 -131.675 -7.49296C-130.838 -6.94468 -129.86 -6.65257 -128.86 -6.65207Z" fill="url(#paint0_linear_1_2686)"/>
  <defs>
    <linearGradient id="paint0_linear_1_2686" x1="-134" y1="53.8429" x2="88.7531" y2="-48.361" gradientUnits="userSpaceOnUse">
      <stop offset="0.08" stop-color="#4323EE"/>
      <stop offset="0.3" stop-color="#661ED5"/>
      <stop offset="0.72" stop-color="#A715A8"/>
      <stop offset="1" stop-color="#DC0E83"/>
    </linearGradient>
  </defs>
</svg>