<svg xmlns="http://www.w3.org/2000/svg" width="24" height="20" viewBox="0 0 24 20" fill="none">
  <path d="M24 10C24 10.2947 23.8946 10.5773 23.7071 10.7857C23.5196 10.994 23.2652 11.1111 23 11.1111H1C0.734784 11.1111 0.48043 10.994 0.292893 10.7857C0.105357 10.5773 0 10.2947 0 10C0 9.70532 0.105357 9.4227 0.292893 9.21433C0.48043 9.00595 0.734784 8.88889 1 8.88889H23C23.2652 8.88889 23.5196 9.00595 23.7071 9.21433C23.8946 9.4227 24 9.70532 24 10ZM1 2.22222H23C23.2652 2.22222 23.5196 2.10516 23.7071 1.89679C23.8946 1.68841 24 1.4058 24 1.11111C24 0.816426 23.8946 0.533811 23.7071 0.325437C23.5196 0.117063 23.2652 0 23 0H1C0.734784 0 0.48043 0.117063 0.292893 0.325437C0.105357 0.533811 0 0.816426 0 1.11111C0 1.4058 0.105357 1.68841 0.292893 1.89679C0.48043 2.10516 0.734784 2.22222 1 2.22222ZM23 17.7778H1C0.734784 17.7778 0.48043 17.8948 0.292893 18.1032C0.105357 18.3116 0 18.5942 0 18.8889C0 19.1836 0.105357 19.4662 0.292893 19.6746C0.48043 19.8829 0.734784 20 1 20H23C23.2652 20 23.5196 19.8829 23.7071 19.6746C23.8946 19.4662 24 19.1836 24 18.8889C24 18.5942 23.8946 18.3116 23.7071 18.1032C23.5196 17.8948 23.2652 17.7778 23 17.7778Z" fill="url(#paint0_linear_1_2449)"/>
  <defs>
    <linearGradient id="paint0_linear_1_2449" x1="4.63498" y1="-16.9778" x2="32.0517" y2="-9.49294" gradientUnits="userSpaceOnUse">
      <stop stop-color="#FF0A6C"/>
      <stop offset="1" stop-color="#2D27FF"/>
    </linearGradient>
  </defs>
</svg>