<svg xmlns="http://www.w3.org/2000/svg" width="308" height="377" viewBox="0 0 308 377" fill="none">
  <path d="M305.328 297.241L235.74 371.856C234.235 373.476 232.412 374.77 230.385 375.655C228.358 376.54 226.171 376.998 223.959 377H-105.915C-107.488 376.999 -109.027 376.54 -110.343 375.677C-111.659 374.815 -112.695 373.588 -113.325 372.146C-113.954 370.704 -114.149 369.11 -113.886 367.559C-113.623 366.008 -112.914 364.567 -111.845 363.412L-42.3356 288.798C-40.8303 287.177 -39.0078 285.884 -36.9806 284.999C-34.9539 284.114 -32.7661 283.656 -30.5544 283.654H299.319C300.906 283.621 302.469 284.059 303.808 284.911C305.147 285.764 306.207 286.994 306.847 288.447C307.492 289.899 307.688 291.509 307.417 293.074C307.146 294.639 306.419 296.089 305.328 297.241ZM235.74 146.952C234.229 145.339 232.405 144.051 230.38 143.166C228.354 142.282 226.169 141.82 223.959 141.808H-105.915C-107.488 141.809 -109.027 142.269 -110.343 143.131C-111.659 143.993 -112.695 145.22 -113.325 146.662C-113.954 148.104 -114.149 149.698 -113.886 151.249C-113.623 152.801 -112.914 154.242 -111.845 155.396L-42.3356 230.05C-40.8248 231.663 -39.0007 232.951 -36.9751 233.836C-34.9496 234.72 -32.7645 235.182 -30.5544 235.194H299.319C300.89 235.185 302.422 234.72 303.733 233.855C305.045 232.99 306.074 231.763 306.698 230.322C307.323 228.882 307.515 227.29 307.248 225.743C306.985 224.195 306.278 222.758 305.21 221.606L235.74 146.952ZM-105.915 93.3479H223.959C226.171 93.346 228.358 92.8877 230.385 92.0025C232.412 91.1177 234.235 89.8242 235.74 88.2035L305.328 13.5894C306.419 12.4369 307.146 10.9869 307.417 9.42205C307.688 7.85715 307.492 6.24717 306.847 4.79471C306.207 3.34225 305.147 2.1122 303.808 1.25934C302.469 0.406488 300.906 -0.0310746 299.319 0.00171692H-30.5544C-32.7661 0.00404505 -34.9539 0.46204 -36.9806 1.34715C-39.0078 2.23225 -40.8303 3.52547 -42.3356 5.14618L-111.845 79.7603C-112.914 80.9144 -113.623 82.3557 -113.886 83.9069C-114.149 85.4581 -113.954 87.052 -113.325 88.4941C-112.695 89.9361 -111.659 91.1633 -110.343 92.0253C-109.027 92.8877 -107.488 93.3471 -105.915 93.3479Z" fill="url(#paint0_linear_1_2222)"/>
  <defs>
    <linearGradient id="paint0_linear_1_2222" x1="-114" y1="188.5" x2="236.367" y2="27.7442" gradientUnits="userSpaceOnUse">
      <stop offset="0.08" stop-color="#4323EE"/>
      <stop offset="0.3" stop-color="#661ED5"/>
      <stop offset="0.72" stop-color="#A715A8"/>
      <stop offset="1" stop-color="#DC0E83"/>
    </linearGradient>
  </defs>
</svg>