<svg xmlns="http://www.w3.org/2000/svg" width="30" height="30" viewBox="0 0 30 30" fill="none">
  <path d="M0 0V30H30V0H0ZM24.9198 7.10527L23.3067 8.64988C23.1693 8.75287 23.1007 8.92448 23.135 9.09612V20.4405C23.1007 20.6122 23.1693 20.7838 23.3067 20.8867L24.8857 22.4313V22.7747H16.9737V22.4313L18.6042 20.8523C18.7757 20.698 18.7757 20.6465 18.7757 20.4062V11.2414L14.2448 22.7232H13.627L8.35812 11.2414V18.9473C8.3238 19.2563 8.42677 19.5823 8.64988 19.8227L10.778 22.397V22.7232H4.77117V22.397L6.88215 19.8227C7.10527 19.5823 7.20823 19.2563 7.15675 18.9473V10.04C7.19108 9.78262 7.0881 9.54233 6.89932 9.37072L5.0286 7.10527V6.76202H10.8638L15.3775 16.682L19.3422 6.76202H24.9198V7.10527Z" fill="#78797E"/>
</svg>