<svg xmlns="http://www.w3.org/2000/svg" width="30" height="30" viewBox="0 0 30 30" fill="none">
  <circle cx="15" cy="15" r="15" fill="#78797E"/>
  <path d="M26.453 8.982C26.183 9.831 25.819 10.57 25.363 11.241L25.382 11.211C24.934 11.9577 24.399 12.8203 23.777 13.799C23.2437 14.5717 22.9613 14.9717 22.93 14.999C22.792 15.172 22.696 15.384 22.663 15.617L22.662 15.624C22.689 15.836 22.787 16.021 22.93 16.159L23.33 16.605C25.47 18.8043 26.6737 20.3203 26.941 21.153C26.976 21.245 26.996 21.351 26.996 21.462C26.996 21.656 26.934 21.835 26.829 21.982L26.831 21.979C26.655 22.16 26.409 22.272 26.137 22.272C26.107 22.272 26.076 22.271 26.047 22.268H26.051H23.42C23.419 22.268 23.417 22.268 23.415 22.268C23.078 22.268 22.768 22.15 22.525 21.954L22.528 21.956C22.174 21.665 21.859 21.35 21.577 21.008L21.568 20.996C21.1073 20.4753 20.6987 20.037 20.342 19.681C19.154 18.5517 18.2773 17.987 17.712 17.987C17.691 17.985 17.667 17.984 17.642 17.984C17.477 17.984 17.323 18.035 17.196 18.122L17.199 18.12C17.095 18.25 17.032 18.418 17.032 18.599C17.032 18.635 17.034 18.669 17.039 18.704V18.7C17.012 19.014 16.996 19.379 16.996 19.748C16.996 19.867 16.998 19.985 17.001 20.103V20.086V21.245C17.011 21.292 17.017 21.346 17.017 21.401C17.017 21.643 16.907 21.859 16.735 22.002L16.734 22.003C16.347 22.18 15.895 22.284 15.418 22.284C15.316 22.284 15.216 22.279 15.117 22.27L15.13 22.271C13.556 22.241 12.096 21.78 10.855 21.003L10.89 21.023C9.379 20.105 8.127 18.91 7.173 17.498L7.146 17.456C6.24 16.254 5.395 14.896 4.675 13.464L4.605 13.31C4.184 12.508 3.748 11.522 3.372 10.508L3.312 10.323C3.159 9.867 3.048 9.337 3.002 8.788L3 8.763C3 8.25767 3.29733 8.005 3.892 8.005H6.522C6.546 8.003 6.574 8.002 6.603 8.002C6.851 8.002 7.08 8.087 7.261 8.23L7.259 8.228C7.459 8.447 7.607 8.716 7.68 9.016L7.683 9.028C8.167 10.395 8.68 11.543 9.27 12.643L9.203 12.506C9.685 13.476 10.218 14.311 10.826 15.082L10.803 15.051C11.3363 15.7057 11.7523 16.033 12.051 16.033C12.06 16.034 12.071 16.034 12.083 16.034C12.231 16.034 12.36 15.954 12.43 15.834L12.431 15.832C12.505 15.642 12.548 15.421 12.548 15.191C12.548 15.142 12.546 15.093 12.542 15.045V15.051V11.172C12.521 10.715 12.409 10.288 12.222 9.905L12.23 9.924C12.106 9.66 11.957 9.432 11.78 9.229L11.783 9.233C11.619 9.069 11.507 8.854 11.472 8.614L11.471 8.608C11.471 8.438 11.549 8.285 11.671 8.185L11.672 8.184C11.793 8.073 11.955 8.006 12.132 8.006H12.14H16.286C16.308 8.003 16.333 8.002 16.359 8.002C16.554 8.002 16.729 8.09 16.845 8.228L16.846 8.229C16.949 8.417 17.01 8.642 17.01 8.88C17.01 8.918 17.008 8.955 17.005 8.992V8.987V14.16C17.003 14.184 17.002 14.212 17.002 14.24C17.002 14.424 17.053 14.597 17.141 14.744L17.139 14.74C17.212 14.848 17.334 14.918 17.472 14.918C17.648 14.906 17.809 14.848 17.944 14.756L17.941 14.758C18.213 14.571 18.447 14.358 18.65 14.117L18.654 14.112C19.261 13.426 19.821 12.668 20.309 11.862L20.348 11.792C20.692 11.222 21.064 10.52 21.401 9.799L21.463 9.652L21.909 8.76C22.064 8.314 22.48 8 22.969 8C22.988 8 23.007 8 23.026 8.001H23.023H25.654C26.3647 8.001 26.6313 8.328 26.454 8.982H26.453Z" fill="#111114"/>
</svg>