<svg xmlns="http://www.w3.org/2000/svg" width="30" height="30" viewBox="0 0 30 30" fill="none">
  <circle cx="15" cy="15" r="15" fill="#78797E"/>
  <path d="M21.0883 9.23C19.8583 8.66 18.5483 8.24 17.1683 8C16.9983 8.3 16.7983 8.71 16.6683 9.04C15.2083 8.82 13.7583 8.82 12.3284 9.04C12.1884 8.71 11.9884 8.3 11.8184 8C10.4384 8.24 9.12836 8.66 7.89836 9.23C5.41836 12.97 4.74836 16.62 5.07836 20.21C6.72836 21.44 8.31836 22.18 9.88836 22.67C10.2784 22.14 10.6184 21.57 10.9184 20.98C10.3484 20.77 9.80836 20.5 9.29836 20.19C9.43836 20.09 9.56836 19.98 9.69836 19.88C12.8283 21.34 16.2183 21.34 19.3083 19.88C19.4383 19.99 19.5683 20.09 19.7083 20.19C19.1983 20.5 18.6483 20.76 18.0883 20.98C18.3883 21.57 18.7283 22.14 19.1184 22.67C20.6883 22.18 22.2883 21.44 23.9283 20.21C24.3183 16.04 23.2583 12.43 21.1083 9.23H21.0883ZM11.3384 18.01C10.3984 18.01 9.62836 17.14 9.62836 16.07C9.62836 15 10.3784 14.13 11.3384 14.13C12.2984 14.13 13.0583 15 13.0483 16.07C13.0483 17.13 12.2984 18.01 11.3384 18.01ZM17.6483 18.01C16.7083 18.01 15.9383 17.14 15.9383 16.07C15.9383 15 16.6883 14.13 17.6483 14.13C18.6083 14.13 19.3684 15 19.3583 16.07C19.3583 17.13 18.6083 18.01 17.6483 18.01Z" fill="black"/>
</svg>