<svg xmlns="http://www.w3.org/2000/svg" width="30" height="30" viewBox="0 0 30 30" fill="none">
  <path d="M11.5633 14.9844C12.4268 14.9844 13.1304 15.6881 13.1304 16.5516C13.1304 17.4151 12.4268 18.1188 11.5633 18.1188C10.6997 18.1188 9.99609 17.4151 9.99609 16.5516C9.99609 15.6881 10.6997 14.9844 11.5633 14.9844Z" fill="#78797E"/>
  <path d="M14.998 21.0276C16.0213 21.0276 17.4607 20.7878 18.1322 20.1161C18.2922 19.9563 18.5481 19.9563 18.7079 20.1002C18.8679 20.26 18.8679 20.5159 18.7079 20.6758C17.6366 21.7472 15.6056 21.8272 14.998 21.8272C14.3902 21.8272 12.3593 21.7472 11.2879 20.6918C11.128 20.5319 11.128 20.2761 11.2879 20.1161C11.4478 19.9563 11.7037 19.9563 11.8636 20.1161C12.5353 20.7878 13.9745 21.0276 14.998 21.0276Z" fill="#78797E"/>
  <path d="M16.8711 16.5672C16.8711 15.7035 17.5748 15 18.4383 15C19.2858 15 19.9894 15.7035 20.0055 16.5672C20.0055 17.4307 19.3018 18.1342 18.4383 18.1342C17.5748 18.1342 16.8711 17.4307 16.8711 16.5672Z" fill="#78797E"/>
  <path fill-rule="evenodd" clip-rule="evenodd" d="M15 0C6.71643 0 0 6.7164 0 15C0 23.2835 6.71643 30 15 30C23.2835 30 30 23.2996 30 15C29.9841 6.7164 23.2835 0 15 0ZM23.6994 16.9988C23.7313 17.2068 23.7474 17.4307 23.7474 17.6545C23.7474 21.0287 19.8295 23.7473 15 23.7473C10.1706 23.7473 6.25268 21.0287 6.25268 17.6545C6.25268 17.4307 6.26866 17.2068 6.30064 16.9988C5.53305 16.6631 5.00534 15.8955 5.00534 15C5.00534 13.8006 5.98082 12.8091 7.19617 12.8091C7.78786 12.8091 8.31557 13.033 8.71536 13.4168C10.2345 12.3134 12.3295 11.6258 14.6641 11.5618C14.6641 11.5298 15.7676 6.33261 15.7676 6.33261C15.7676 6.23665 15.8315 6.14071 15.9115 6.09274C15.9915 6.02877 16.1035 6.01278 16.2154 6.02877L19.8454 6.81234C20.1012 6.30063 20.629 5.93282 21.2367 5.93282C22.1002 5.93282 22.8039 6.62045 22.8039 7.49999C22.8039 8.37951 22.1002 9.06714 21.2367 9.06714C20.4051 9.06714 19.7175 8.41149 19.6855 7.57993L16.4233 6.87632L15.4318 11.5618C17.7346 11.6418 19.7975 12.3454 21.2847 13.4168C21.6845 13.033 22.2122 12.7932 22.8039 12.7932C24.0192 12.7932 24.9946 13.7687 24.9946 14.984C24.9946 15.8955 24.4509 16.6471 23.6994 16.9988Z" fill="#78797E"/>
</svg>