<svg xmlns="http://www.w3.org/2000/svg" width="261" height="266" viewBox="0 0 261 266" fill="none">
  <path d="M295.865 209.725L246.766 262.37C245.704 263.514 244.418 264.426 242.988 265.051C241.558 265.675 240.014 265.999 238.454 266H5.70467C4.5946 265.999 3.50877 265.675 2.58016 265.067C1.65157 264.459 0.920518 263.593 0.476494 262.575C0.0324694 261.558 -0.105241 260.433 0.0802383 259.339C0.265717 258.244 0.766294 257.227 1.52073 256.413L50.5643 203.767C51.6263 202.624 52.9123 201.711 54.3426 201.087C55.7726 200.463 57.3162 200.139 58.8768 200.138H291.626C292.745 200.115 293.848 200.423 294.793 201.025C295.738 201.627 296.486 202.495 296.937 203.519C297.392 204.544 297.53 205.68 297.339 206.785C297.148 207.889 296.635 208.912 295.865 209.725ZM246.766 103.685C245.7 102.547 244.413 101.638 242.984 101.014C241.555 100.39 240.013 100.064 238.454 100.056H5.70467C4.5946 100.056 3.50877 100.38 2.58016 100.989C1.65157 101.597 0.920518 102.463 0.476494 103.48C0.0324694 104.498 -0.105241 105.623 0.0802383 106.717C0.265717 107.812 0.766294 108.828 1.52073 109.643L50.5643 162.316C51.6302 163.454 52.9173 164.363 54.3465 164.987C55.7756 165.611 57.3173 165.938 58.8768 165.946H291.626C292.734 165.94 293.815 165.611 294.74 165.001C295.666 164.391 296.392 163.525 296.832 162.508C297.273 161.492 297.408 160.369 297.22 159.277C297.034 158.185 296.536 157.171 295.782 156.359L246.766 103.685ZM5.70467 65.8635H238.454C240.014 65.8621 241.558 65.5388 242.988 64.9142C244.418 64.29 245.704 63.3773 246.766 62.2337L295.865 9.58826C296.635 8.77508 297.148 7.75206 297.339 6.64792C297.53 5.54377 297.392 4.40782 296.937 3.383C296.486 2.35819 295.738 1.4903 294.793 0.888556C293.848 0.286806 292.745 -0.0219253 291.626 0.00121141H58.8768C57.3162 0.00285407 55.7726 0.326002 54.3426 0.950506C52.9123 1.57501 51.6263 2.48747 50.5643 3.63099L1.52073 56.2765C0.766294 57.0908 0.265717 58.1077 0.0802383 59.2022C-0.105241 60.2967 0.0324694 61.4213 0.476494 62.4388C0.920518 63.4562 1.65157 64.3221 2.58016 64.9303C3.50877 65.5388 4.5946 65.863 5.70467 65.8635Z" fill="url(#paint0_linear_1_2220)"/>
  <defs>
    <linearGradient id="paint0_linear_1_2220" x1="4.23831e-06" y1="133" x2="247.208" y2="19.5755" gradientUnits="userSpaceOnUse">
      <stop offset="0.08" stop-color="#4323EE"/>
      <stop offset="0.3" stop-color="#661ED5"/>
      <stop offset="0.72" stop-color="#A715A8"/>
      <stop offset="1" stop-color="#DC0E83"/>
    </linearGradient>
  </defs>
</svg>