<svg xmlns="http://www.w3.org/2000/svg" width="30" height="30" viewBox="0 0 30 30" fill="none">
  <path d="M9.43089 30C20.748 30 26.9431 18.4676 26.9431 8.47435C26.9431 8.15456 26.9432 7.83478 26.9268 7.49501C28.1301 6.43571 29.1708 5.09659 30 3.57762C28.8944 4.17722 27.7073 4.57694 26.4553 4.77681C27.7236 3.83744 28.6992 2.35842 29.1708 0.579618C27.9837 1.45902 26.6667 2.07861 25.252 2.41839C24.13 0.919394 22.5366 0 20.7642 0C17.3658 0 14.6016 3.39773 14.6016 7.57495C14.6016 8.17456 14.6667 8.73418 14.7642 9.29381C9.65853 8.994 5.12195 5.95602 2.0813 1.37908C1.54472 2.51832 1.25204 3.81745 1.25204 5.19653C1.25204 7.81479 2.34147 10.1332 3.98374 11.4923C2.97561 11.4524 2.03252 11.1126 1.20326 10.553C1.20326 10.573 1.20326 10.6129 1.20326 10.6529C1.20326 14.3105 3.33333 17.3884 6.13008 18.0679C5.60976 18.2478 5.07316 18.3277 4.50406 18.3277C4.11382 18.3277 3.72357 18.2878 3.34959 18.1879C4.13008 21.2059 6.4065 23.3845 9.10569 23.4443C6.99188 25.4831 4.34146 26.6822 1.46342 26.6822C0.975615 26.6822 0.47154 26.6622 0 26.5823C2.71545 28.7409 5.95122 30 9.43089 30Z" fill="#78797E"/>
</svg>