<svg xmlns="http://www.w3.org/2000/svg" width="30" height="30" viewBox="0 0 30 30" fill="none">
  <path d="M29.3941 4.67443C29.0502 2.83722 28.0349 1.37211 26.7412 0.883735C24.3995 -2.43786e-07 15.0164 0 15.0164 0C15.0164 0 5.6168 -2.43786e-07 3.2751 0.883735C1.98144 1.39536 0.982531 2.83722 0.622268 4.67443C0 8.02325 0 15 0 15C0 15 0 21.9768 0.622268 25.3257C0.966161 27.1861 1.98144 28.628 3.2751 29.1163C5.6168 30 14.9999 30 14.9999 30C14.9999 30 24.3832 30 26.7249 29.1163C28.0022 28.628 29.0338 27.1861 29.3777 25.3257C30 21.9768 30 15 30 15C30 15 30.0163 8.02325 29.3941 4.67443ZM11.9378 21.3489V8.67443L19.7816 15L11.9378 21.3489Z" fill="#78797E"/>
</svg>